PathFileType	4	(X/Y/Z)	Patient5_TMGait_0pt45_1_left_04.trc.trc
DataRate	CameraRate	NumFrames	NumMarkers	Units	OrigDataRate	OrigDataStartFrame	OrigNumFrames
58.823529411765	58.823529411765	7	32	mm	58.823529411765	71	       141
Frame#	Time	R.ASIS			L.ASIS			Chest			R.Shoulder			Neck			L.Shoulder			L.Elbow			L.Wrist			R.Elbow			R.Wrist			L.Thigh.Superior			L.Thigh.Lateral			L.Thigh.Inferior			L.Patella			L.Shank.Superior			L.Shank.Lateral			L.Shank.Inferior			L.Heel			L.Midfoot.Lateral			L.Midfoot.Superior			L.Toe			R.Thigh.Superior			R.Thigh.Lateral			R.Thigh.Inferior			R.Patella			R.Shank.Superior			R.Shank.Lateral			R.Shank.Inferior			R.Heel			R.Midfoot.Lateral			R.Midfoot.Superior			R.Toe			
		X1	Y1	Z1	X2	Y2	Z2	X3	Y3	Z3	X4	Y4	Z4	X5	Y5	Z5	X6	Y6	Z6	X7	Y7	Z7	X8	Y8	Z8	X9	Y9	Z9	X10	Y10	Z10	X11	Y11	Z11	X12	Y12	Z12	X13	Y13	Z13	X14	Y14	Z14	X15	Y15	Z15	X16	Y16	Z16	X17	Y17	Z17	X18	Y18	Z18	X19	Y19	Z19	X20	Y20	Z20	X21	Y21	Z21	X22	Y22	Z22	X23	Y23	Z23	X24	Y24	Z24	X25	Y25	Z25	X26	Y26	Z26	X27	Y27	Z27	X28	Y28	Z28	X29	Y29	Z29	X30	Y30	Z30	X31	Y31	Z31	X32	Y32	Z32	

71	6.290000000000	923.282734866487	1017.960920897450	537.580402926759	935.368654269482	964.287047124639	290.828836521728	967.414439569719	1451.624488771098	408.612023175394	835.688123245710	1515.601939162580	553.155843678296	843.636785709698	1567.107066318580	366.037167687574	943.620746998939	1509.008206126064	205.037881911401	962.374425356091	1172.309210781030	97.788599705132	1137.981133915132	950.657160083709	142.711100209867	733.269017906501	1194.391236281085	677.338139480494	956.224574518352	1009.137667007804	660.112123545996	937.906520704727	738.604909108072	303.582915391131	853.788377196236	673.756674953314	262.957614753283	911.869406829581	610.096551672762	330.176875551348	895.309736474277	497.408551307412	338.242398507347	841.793849134211	397.579971381437	360.105197851694	770.563249887712	331.929095200204	286.706830077527	803.357767714047	278.494857312309	375.578988016725	658.851630804719	50.825245070644	386.019726615642	744.445966668897	28.088771620075	321.467087803334	842.876565497542	88.557164721865	361.943516873655	950.874817876700	45.263606811590	361.908428112018	1001.009418828232	818.737711743091	581.990090066047	950.365630679530	729.953322527945	650.095041986367	1049.504953764311	699.552962705645	587.575074968486	1085.180374973875	609.452293556377	636.872841901921	1060.548444179979	494.897380589699	607.722286916955	987.759530256507	423.397662118908	685.564920503321	1059.597956308280	354.925065865684	616.561905970337	968.621768881435	120.158619591104	590.389995125312	1042.523294951925	91.452536847935	669.772541221500	1142.197297646955	168.374685091043	665.497078146547	1248.832993536902	135.269507400163	673.179230862499	
72	6.307000000000	923.611230110496	1016.709485106692	536.779770558973	934.034018959112	964.092727673457	290.861343799144	965.188660129073	1451.369941525194	409.298234449480	834.324623896282	1514.656826769949	555.204417825217	840.570241889460	1566.425948103927	368.102212305023	939.424516711491	1508.756699957592	205.882275065616	956.295708053206	1171.745094985901	98.792241668970	1130.479091938883	948.918510562830	144.118513731716	732.694228718917	1193.481065532133	679.732186884071	955.930748830307	1008.602367055490	661.977547182227	935.768472684758	738.131129321604	303.652019727195	850.615793571343	673.449964582884	263.242525316560	908.648321224989	609.515512442233	329.811054441275	890.640801667362	496.661549841345	337.750708074844	836.452023182633	397.409640122486	359.868483716731	764.171003389803	332.446255519668	286.772917865479	797.254389998260	278.544981023578	375.421168075832	651.237733591690	51.047190370919	386.006510677391	736.769013133308	28.154933556634	321.535355053259	835.273651905579	88.610424220562	361.796180519317	943.136039685870	45.198642938746	361.917906019789	1002.346393615371	817.157267860387	580.455705197117	952.945612566022	728.018942423543	648.638677107809	1051.087548836431	697.797586526794	584.516851922168	1087.401676649678	607.616725305568	633.059060539825	1062.358957766525	493.018352145330	603.938988969034	990.745322194570	421.304084005051	682.696196356762	1061.440056646907	353.000180066555	612.405287126871	969.939785295142	118.470534778096	586.796652415964	1045.022707302636	89.385943221307	664.917753327504	1144.672694038086	166.255302572136	659.484955886558	1251.402470542404	133.106572515779	665.540377511232	
73	6.324000000000	924.145151535617	1015.301784015514	536.094669488014	932.798507588564	963.824700039918	291.002104088592	963.211946490387	1451.044830763640	410.199815429000	833.345042153804	1513.595249936163	557.560302450956	837.696503473289	1565.673229984070	370.486983530211	935.309712552839	1508.497055886462	206.970004202445	949.899706841054	1171.275565559876	99.683328923810	1122.585821084383	947.184328087993	145.121079095806	732.542188531687	1192.482393982184	682.508716063258	955.807807722146	1007.729348651958	663.745271266923	933.632439975964	737.570950705996	303.579332687673	847.615054065745	673.136386951301	263.541043283961	905.731689417090	608.927280590956	329.423620905297	886.274043297427	495.841555873787	337.265936237424	831.391120869800	397.179255199571	359.649955188745	758.006181763928	332.970691361797	286.867171451742	791.325238259440	278.574583459138	375.264926636411	643.633107502533	51.270404522174	386.004692054323	729.108605764986	28.230031840487	321.606246329107	827.687527302572	88.638037024409	361.666972666008	935.403025817087	45.155311212765	361.913759460838	1003.262115948081	814.915109806883	579.077787860277	954.544712855472	725.413988632944	647.000995817099	1051.709721855642	695.157677448273	581.442300608354	1088.234231709150	604.781580668695	629.153162622750	1062.971830472458	490.382140858206	599.991506023155	992.413813922912	418.332711818731	679.408607744196	1062.280326595592	350.328853471428	608.071163334733	970.770469559256	115.887052710319	582.651194207700	1046.742938329742	86.532877669123	659.780852389020	1146.250268107370	163.500000869058	653.610497319102	1253.068617246191	130.434553439380	658.393898248489	
74	6.341000000000	924.901748398535	1013.705240579142	535.567248834501	931.702577844191	963.462712978687	291.245460721223	961.483269514808	1450.627681412870	411.332917221599	832.740033696629	1512.400064694337	560.210447590787	835.024921516647	1564.816892943130	373.184291113240	931.276655395300	1508.203832473457	208.321415236297	943.263597215487	1170.895848429261	100.487331838282	1114.347762872279	945.425898328348	145.684168354659	732.832022724643	1191.359811055588	685.664435169414	955.883274825777	1006.499335328679	665.406586041792	931.429783763693	736.865444673337	303.352095585241	844.753515800324	672.817317004748	263.843845248182	903.013127204736	608.307185326159	329.065064115232	882.113127928441	494.961404454081	336.843620826202	826.530596378536	396.884227885150	359.479355013198	752.042427342205	333.473498845240	287.018211605674	785.515008926275	278.573798168003	375.139057658239	636.034801040087	51.492978027619	386.021576530308	721.461158741031	28.315670146541	321.686033858200	820.109873543940	88.648029691166	361.557009541063	927.680777477427	45.142975167889	361.882206628497	1003.816801306399	812.020072569808	577.789188519929	955.195798956918	722.144286741536	645.227412366302	1051.425860874838	691.671888967150	578.411492050126	1087.738966283359	600.990852045531	625.233419083627	1062.432032574950	487.007714161001	595.940735106593	992.796900492501	414.503686348460	675.758956836345	1062.156116685052	346.926614637290	603.597599177202	971.077999245313	112.443980938165	577.965712018655	1047.703281267974	82.870035694149	654.338367762710	1146.964522822314	160.087535782928	647.859217956307	1253.882026024956	127.227178686090	651.658301715427	
75	6.358000000000	925.884733334679	1011.871986790779	535.215568911871	930.799119591246	962.997061160817	291.584992961539	959.995642095755	1450.099166705344	412.703622071513	832.495195601507	1511.052389991981	563.136146236928	832.558196741020	1563.825000815302	376.177985969424	927.320032237535	1507.853050125082	209.947845074680	936.466146238077	1170.599898399999	101.235862352828	1105.808634314224	943.611039068828	145.794626480611	733.574261476848	1190.076408204051	689.179838131526	956.189726360679	1004.907852903062	666.964704962581	929.142519140415	735.989553116222	303.009488047111	841.997464347549	672.489298444060	264.146414394417	900.392787577480	607.630045538762	328.775978652935	878.065216301848	494.033567472376	336.527395159714	821.784814444597	396.522323413874	359.382970094977	746.242059623883	333.928874331598	287.250656264606	779.767866333437	278.532961013441	375.069648595739	628.439910768065	51.713444871365	386.065038601245	713.820931120551	28.412806550570	321.781659465068	812.531612165722	88.646132556915	361.467924461697	919.971297217459	45.162413596403	361.815871037888	1004.054868930547	808.477133773262	576.547447842679	954.944918254073	718.231106167838	643.365946497493	1050.292803720478	687.389510611086	575.477200817114	1085.995658034368	596.312142110901	621.368205790310	1060.789504372034	482.925226226887	591.838512233160	991.924014227785	409.862582549119	671.798571047384	1061.085767569462	342.821067591968	599.020560056560	970.775413393800	108.207112042962	572.767492926601	1047.869643290776	78.388033917674	648.563798069125	1146.808033266998	155.988319689427	642.204703743657	1253.841778262943	123.440606881040	645.237322973506	
76	6.375000000000	927.087513116242	1009.746653549708	535.047265926325	930.139168936181	962.426938372610	292.016450061653	958.738400795393	1449.437369653313	414.310864565139	832.594181214936	1509.527653461671	566.319992520435	830.294307800468	1562.666039628243	379.451089472417	923.435494909126	1507.418218984425	211.854453653633	929.580291988101	1170.375838280705	101.960458773695	1097.010963636254	941.706950943411	145.460792813731	734.772033550618	1188.592787549123	693.024298174403	956.764088945818	1002.963387824078	668.433052974198	926.813101460969	734.954884024055	302.646254001929	839.325050549393	672.140452699048	264.452355932126	897.798679110400	606.871060739346	328.590310398566	874.062135061444	493.062497598035	336.347669039723	817.082090450521	396.089483289556	359.383485697875	740.570133491514	334.313535945477	287.580154144354	774.038032800725	278.439925897988	375.078149268764	620.845409789023	51.928071927302	386.145152839051	706.180738660513	28.522091969491	321.900102488859	804.943917620198	88.635007524337	361.403150171829	912.272729482331	45.204097985049	361.716663938924	1004.000006230801	804.287438169408	575.348592374947	953.842126210302	713.706250409733	641.460054647408	1048.365417700623	682.364169170897	572.681833936725	1083.093493121517	590.826604972655	617.611525828995	1058.094505480962	478.173561282538	587.724140763265	989.818196085919	404.476261458927	667.569021931616	1059.067955993417	338.049676959661	594.370790625128	969.739895021020	103.265422675533	567.093852584097	1047.155695005999	73.104343181408	642.442984157728	1145.730919958010	151.177625612565	636.619160875000	1252.894770286852	119.020829051295	639.048223734809	
77	6.392000000000	928.496787164044	1007.277054362594	535.071861801545	929.752060582170	961.752613921477	292.542952190958	957.699209458255	1448.615212991660	416.150413801133	833.020055461193	1507.795714153384	569.749954595244	828.230385397714	1561.310532152556	382.991924352047	919.624598621942	1506.868067264968	214.043274654078	922.668691804078	1170.203159150879	102.688518519383	1087.996862983950	939.681977164626	144.709449720070	736.422492705500	1186.867261525065	697.160784443699	957.644993454767	1000.682632830556	669.833730459510	924.519326150513	733.788791189439	302.376037851043	836.734224355967	671.749560105444	264.774486638093	895.199283530932	606.006159919749	328.535125965667	870.071730480898	492.038841237286	336.322081026145	812.377939522429	395.576655235386	359.498124110499	735.004257887712	334.606373265138	288.010420993878	768.297409125068	278.279295883061	375.179164369878	613.248266656963	52.130257439130	386.273421865845	698.533172821573	28.644347103949	322.047137442578	797.339159991383	88.614765720992	361.367832550174	904.580226500400	45.252587976847	361.593683433511	1003.656999055815	799.455690730981	574.224864713137	951.935648050167	708.612169482632	639.543546322635	1045.696638419048	676.654690367598	570.057982837305	1079.125178615858	584.622868232476	614.002703960649	1054.397292958707	472.802732382098	583.623703496187	986.500618115969	398.430981523171	663.103011527646	1056.088667556078	332.662141878007	589.671691624598	967.834937468158	97.727703235289	560.991491411003	1045.438802915131	67.082430252856	635.990042028808	1143.655725613710	145.655853550236	631.073567805104	1250.952283259365	113.918919282920	633.032880704385	
